HIERARCHY
ROOT pelvis
{
  OFFSET 0 100 0
  CHANNELS 6 Xposition Yposition Zposition Zrotation Xrotation Yrotation
  JOINT pelvis_right_femur
  {
    OFFSET -10.78128 -3.44521 -0.5502486
    CHANNELS 3 Zrotation Xrotation Yrotation
    JOINT right_femur_tibia
    {
      OFFSET -0.8047443 -44.0398 -0.1307829
      CHANNELS 3 Zrotation Xrotation Yrotation
      JOINT right_tibia_foot
      {
        OFFSET 3.006224 -47.83518 -5
        CHANNELS 3 Zrotation Xrotation Yrotation
        End Site
        {
          OFFSET 0 -5 15
        }
      }
    }
  }
  JOINT pelvis_left_femur
  {
    OFFSET 10.78128 -3.44521 -0.5502486
    CHANNELS 3 Zrotation Xrotation Yrotation
    JOINT left_femur_tibia
    {
      OFFSET 0.8047443 -44.0398 -0.1307829
      CHANNELS 3 Zrotation Xrotation Yrotation
      JOINT left_tibia_foot
      {
        OFFSET -4.370144 -48.10324 -4.275266
        CHANNELS 3 Zrotation Xrotation Yrotation
        End Site
        {
          OFFSET 0 -5 15
        }
      }
    }
  }
  JOINT pelvis_spine1
  {
    OFFSET 0 6.468898 -3.129235
    CHANNELS 3 Zrotation Xrotation Yrotation
    JOINT spine1
    {
      OFFSET 0 23.15396 4.99043
      CHANNELS 3 Zrotation Xrotation Yrotation
      JOINT spine2
      {
        OFFSET 0 20.79997 -5.064912
        CHANNELS 3 Zrotation Xrotation Yrotation
        JOINT neck
        {
          OFFSET 0 14.38658 9.616178
          CHANNELS 3 Zrotation Xrotation Yrotation
          End Site
          {
            OFFSET 0 20 0
          }
        }
      }
      JOINT right_manubrium
      {
        OFFSET -5.722621 16.35077 3.967754
        CHANNELS 3 Zrotation Xrotation Yrotation
        JOINT right_clavicle
        {
          OFFSET -13.16364 1.694482 -4.693211
          CHANNELS 3 Zrotation Xrotation Yrotation
          JOINT right_humerus
          {
            OFFSET -28.5034 -0.3100689 -2.792744
            CHANNELS 3 Zrotation Xrotation Yrotation
            JOINT right_radius
            {
              OFFSET -25.15693 0.02248979 -1.271978
              CHANNELS 3 Zrotation Xrotation Yrotation
              End Site
              {
                OFFSET -15 0 0
              }
            }
          }
        }
      }
      JOINT left_manubrium
      {
        OFFSET 5.722621 16.35077 3.967754
        CHANNELS 3 Zrotation Xrotation Yrotation
        JOINT left_clavicle
        {
          OFFSET 13.16364 1.694482 -4.693211
          CHANNELS 3 Zrotation Xrotation Yrotation
          JOINT left_humerus
          {
            OFFSET 29.39168 -1.063119 -2.237045
            CHANNELS 3 Zrotation Xrotation Yrotation
            JOINT left_radius
            {
              OFFSET 24.59957 -0.9528479 0.9047498
              CHANNELS 3 Zrotation Xrotation Yrotation
              End Site
              {
                OFFSET 15 -0 -0
              }
            }
          }
        }
      }
    }
  }
}
MOTION
Frames: 11
Frame Time: 0.0416666666667
0 103.5113 0 1.014461 -0.07424645 0.06095793 3.315183 -16.06455 9.561091 -0 39.17876 -0 -4.980163 -16.47677 -3.190243 -7.231183 9.257375 -23.38319 -0 6.60047 -0 8.49735 -17.43174 25.92693 -4.280628 -3.907675 4.65479 2.85893 9.330615 -7.73828 1.013298 21.95368 7.171973 3.04859 -25.00361 9.591444 7.483822 -19.4321 11.94992 84.36717 36.74772 -18.54274 -0 0 16.48817 -7.747145 9.117629 5.328012 5.445986 -19.03851 -0.8631701 -95.22753 26.71526 23.54919 0 0 -13.04385 6.317732 17.53571 6.39728
0.3821186 103.4396 1.439158 0.907347 0.08276333 0.1093309 3.591731 -16.87647 9.665877 -0 38.7168 -0 -5.069171 -16.2169 -3.203489 -7.175813 9.30737 -23.25657 -0 6.714474 -0 8.91202 -17.38347 26.04042 -4.18022 -3.842195 4.693174 2.850008 9.362185 -7.728455 1.101797 21.83415 7.121262 3.041156 -25.104 9.656357 7.391653 -19.4523 11.90159 84.44706 36.71707 -18.48452 -0 0 16.45843 -7.59947 9.159315 5.271585 5.583019 -19.12434 -0.7849708 -94.96956 26.22049 23.25452 0 0 -13.2237 7.109315 17.37148 5.632118
0.6476328 103.2895 4.549941 -0.5405651 1.585133 0.2551508 5.832941 -24.70659 6.353073 -0 27.99285 -0 -4.62626 -11.56226 -2.604433 -6.375497 15.73227 -20.89318 -0 8.285312 -0 6.061672 -17.95768 21.88672 -2.647398 -2.670828 3.058698 3.121006 8.843272 -7.841225 1.075591 21.75894 7.860057 2.687199 -25.47566 10.68451 5.422009 -18.13208 10.85611 87.10966 37.0678 -20.5919 -0 0 12.09133 -8.415532 11.03743 6.105828 5.404389 -19.96262 -2.365735 -91.23216 28.2806 19.44506 0 0 -23.02436 5.902995 15.93398 8.047728
0.9700821 103.1572 7.14713 -0.0395449 1.191997 0.4120812 5.194958 -22.4505 7.545795 -0 32.04937 -0 -4.383906 -13.44037 -2.577941 -6.773218 14.42364 -22.33009 -0 7.123174 -0 7.580844 -17.0777 23.60917 -2.989812 -2.75165 3.460629 2.812417 8.928621 -7.396428 1.172594 22.04802 7.852175 2.813007 -25.19184 10.76931 6.219535 -18.43852 10.98161 86.42378 38.52286 -19.88575 -0 0 12.84968 -7.441637 10.77076 5.857832 4.850595 -19.07516 -2.651043 -92.33006 29.55378 20.97035 0 0 -21.92573 5.288407 15.8909 9.230225
1.337112 103.0586 9.588075 0.1385408 1.411476 0.6316118 5.283496 -22.91396 8.447351 -0 33.33995 -0 -4.234479 -13.69768 -2.268271 -7.053136 13.65119 -22.84793 -0 6.26678 -0 9.697851 -16.28441 24.97781 -3.066074 -2.580855 3.824643 2.645319 9.164905 -7.113457 1.325131 21.92559 7.835561 2.975743 -25.30732 10.91073 6.638112 -18.7288 11.09159 86.17768 39.82009 -19.45526 -0 0 13.1642 -6.490035 10.53973 5.583833 4.729929 -18.70162 -2.887817 -92.2017 29.12586 21.15684 0 0 -22.21231 6.898473 15.05838 7.891055
1.681037 102.993 12.20627 -0.102268 1.372304 0.8599613 5.388912 -22.92074 7.842414 -0 32.50252 -0 -4.309862 -13.61967 -2.366014 -6.813225 14.67227 -22.68096 -0 6.955521 -0 7.958806 -16.73459 23.89872 -2.852918 -2.508249 3.418183 2.677575 8.859606 -7.16495 1.249506 22.10303 8.00486 2.919941 -25.16007 11.01311 6.427633 -18.29159 10.87155 86.44284 39.61602 -19.80029 -0 0 12.56311 -6.767433 10.89729 5.638802 4.632945 -18.71885 -2.959652 -92.29392 30.41624 21.02258 0 0 -22.76582 5.235219 15.51345 9.670538
2.039112 102.9321 14.7271 -0.009217193 1.215266 1.075783 5.19092 -22.32157 7.901237 -0 33.10385 -0 -4.292023 -13.95779 -2.421108 -6.855531 14.4818 -22.87783 -0 6.746415 -0 7.918208 -16.73054 24.04242 -2.931641 -2.575413 3.455624 2.637064 8.853238 -7.133013 1.240963 22.18293 7.986791 2.92007 -25.06358 10.97041 6.507498 -18.34027 10.89365 86.32574 39.5931 -19.71198 -0 0 12.72867 -6.803258 10.85719 5.652772 4.56999 -18.63592 -2.96761 -92.55818 30.67302 21.31131 0 0 -22.42536 4.843876 15.68351 10.0986
2.41294 102.8866 17.15082 0.08093666 1.117182 1.297511 5.038701 -21.87695 8.043597 -0 33.76247 -0 -4.259923 -14.27697 -2.42001 -6.916143 14.266 -23.11552 -0 6.457984 -0 8.058186 -16.66189 24.29149 -2.996647 -2.602772 3.514243 2.578445 8.859242 -7.069131 1.248594 22.2418 7.98591 2.948415 -24.98791 10.95951 6.632812 -18.39336 10.9164 86.19708 39.76289 -19.5952 -0 0 12.89029 -6.714295 10.8162 5.620463 4.498957 -18.5125 -3.008956 -92.78784 30.92681 21.58954 0 0 -22.20269 4.620832 15.7472 10.39288
2.79908 102.852 19.50703 0.1424477 1.034753 1.522845 4.921871 -21.52883 8.121363 -0 34.21796 -0 -4.24208 -14.51095 -2.429097 -6.953422 14.1372 -23.28072 -0 6.276684 -0 8.088732 -16.63286 24.43267 -3.04048 -2.625183 3.544596 2.536555 8.853986 -7.026896 1.250161 22.2932 7.987829 2.966261 -24.92208 10.94812 6.713516 -18.42001 10.92676 86.11217 39.85784 -19.52394 -0 0 12.9946 -6.671329 10.79316 5.601604 4.445523 -18.42829 -3.039808 -92.96722 31.15476 21.79477 0 0 -22.04454 4.382746 15.8161 10.68387
3.193823 102.8257 21.82542 0.1755846 0.9588075 1.747731 4.834144 -21.25063 8.123803 -0 34.46587 -0 -4.240837 -14.6665 -2.457742 -6.964102 14.10094 -23.36927 -0 6.217716 -0 7.981394 -16.65103 24.45083 -3.06518 -2.647883 3.542547 2.514816 8.834473 -7.010765 1.243194 22.34165 7.990654 2.968729 -24.86354 10.93305 6.742803 -18.41833 10.92418 86.0744 39.85186 -19.50415 -0 0 13.03854 -6.689285 10.78684 5.602461 4.408209 -18.38685 -3.05558 -93.10195 31.36471 21.92923 0 0 -21.93478 4.099701 15.90349 10.99814
3.598368 102.8056 24.09885 0.2201004 0.885994 1.971389 4.7403 -20.96843 8.149064 -0 34.74541 -0 -4.234212 -14.82035 -2.481032 -6.986244 14.01915 -23.46067 -0 6.133926 -0 7.946137 -16.6508 24.51005 -3.100451 -2.675806 3.558307 2.493438 8.829515 -6.994518 1.237583 22.3811 7.986211 2.973232 -24.81255 10.91159 6.781328 -18.43619 10.93293 86.02423 39.85098 -19.47128 -0 0 13.11009 -6.701512 10.76579 5.603567 4.375854 -18.3472 -3.067197 -93.23173 31.51003 22.06982 0 0 -21.79756 3.889805 15.97273 11.22998
